<svg width="32" height="32" viewBox="0 0 32 32" fill="none" xmlns="http://www.w3.org/2000/svg">
<rect width="32" height="32" fill="#2C2E35"/>
<path d="M24.7399 16.4804H22.4292L23.1994 14.9399H26.2804L24.7399 16.4804Z" fill="#EFF2EF"/>
<path d="M14.2778 25.8942H17.7223L26.2803 8.77812H24.558L16.7702 24.3537H15.2298L15.1389 24.1719L22.8358 8.77812H21.1135L13.4166 24.1719L14.2778 25.8942Z" fill="#EFF2EF"/>
<path d="M9.57085 16.4804L13.4166 24.1719L14.2778 22.4497L11.2931 16.4804H13.0063L15.1389 20.7273L16 19.0051L14.7377 16.4804H17.2624L18.0326 14.9399H13.9674L13.1972 13.3995H18.8028L19.5731 11.859H10.7047L12.2327 14.9399H10.5229L8.21222 10.3186L20.3432 10.3187L21.1135 8.77812H5.71976L8.80064 14.9399H7.26017L5.71976 16.4804H9.57085Z" fill="#EFF2EF"/>
</svg>
